<svg width="39" height="40" viewBox="0 0 39 40" fill="none" xmlns="http://www.w3.org/2000/svg">
<g clip-path="url(#clip0)">
<path d="M32.5 26.3137C32.3996 26.4146 32.2803 26.4947 32.1488 26.5494C32.0174 26.6041 31.8764 26.6322 31.7341 26.6322C31.5917 26.6322 31.4508 26.6041 31.3193 26.5494C31.1879 26.4947 31.0685 26.4146 30.9682 26.3137L29.4363 24.7818C29.3354 24.6815 29.2553 24.5621 29.2006 24.4307C29.1459 24.2992 29.1178 24.1583 29.1178 24.0159C29.1178 23.8736 29.1459 23.7326 29.2006 23.6012C29.2553 23.4697 29.3354 23.3504 29.4363 23.25L32.5 20.1863C32.6005 20.0856 32.7199 20.0058 32.8513 19.9513C32.9828 19.8968 33.1236 19.8687 33.2659 19.8687C33.4082 19.8687 33.5491 19.8968 33.6805 19.9513C33.8119 20.0058 33.9313 20.0856 34.0318 20.1863L35.5637 21.7182C35.6646 21.8185 35.7447 21.9379 35.7994 22.0693C35.8541 22.2008 35.8822 22.3417 35.8822 22.4841C35.8822 22.6264 35.8541 22.7674 35.7994 22.8988C35.7447 23.0303 35.6646 23.1496 35.5637 23.25L32.5 26.3137ZM16.25 10.0637C16.1496 10.1646 16.0303 10.2447 15.8988 10.2994C15.7674 10.3541 15.6264 10.3822 15.4841 10.3822C15.3417 10.3822 15.2008 10.3541 15.0693 10.2994C14.9379 10.2447 14.8185 10.1646 14.7182 10.0637L13.1863 8.53183C13.0854 8.43146 13.0053 8.31212 12.9506 8.18067C12.8959 8.04923 12.8678 7.90827 12.8678 7.76592C12.8678 7.62356 12.8959 7.4826 12.9506 7.35116C13.0053 7.21971 13.0854 7.10037 13.1863 7L16.25 3.93633C16.3505 3.83564 16.4699 3.75576 16.6013 3.70126C16.7328 3.64675 16.8736 3.6187 17.0159 3.6187C17.1582 3.6187 17.2991 3.64675 17.4305 3.70126C17.5619 3.75576 17.6813 3.83564 17.7818 3.93633L19.3137 5.46817C19.4146 5.56854 19.4947 5.68788 19.5494 5.81933C19.6041 5.95077 19.6322 6.09172 19.6322 6.23408C19.6322 6.37644 19.6041 6.5174 19.5494 6.64884C19.4947 6.78028 19.4146 6.89963 19.3137 7L16.25 10.0637Z" fill="#66757F"/>
<path d="M2.16669 24.3333C4.33336 24.3333 14.0834 25.4167 14.0834 25.4167C14.0834 25.4167 15.1667 35.1667 15.1667 37.3333C15.1667 39.5 13 39.5 11.9167 38.4167C10.8334 37.3333 7.58336 31.9167 7.58336 31.9167C7.58336 31.9167 2.16669 28.6667 1.08336 27.5833C2.39176e-05 26.5 2.39176e-05 24.3333 2.16669 24.3333ZM4.33336 7.04225C7.58336 7 31.4167 8.08333 31.4167 8.08333C31.4167 8.08333 32.4177 31.9167 32.4589 35.1667C32.5 38.4167 29.4656 39.5022 28.275 35.1677C27.0844 30.8333 22.75 16.75 22.75 16.75C22.75 16.75 7.63211 11.9649 4.32794 11.2228C2.37885e-05 10.25 1.08227 7.08342 4.33336 7.04225Z" fill="#55ACEE"/>
<path d="M29.25 3.75C31.4167 1.58333 36.8334 0.5 37.9167 1.58333C39 2.66667 37.9167 8.08333 35.75 10.25C33.5834 12.4167 15.1667 29.75 15.1667 29.75C15.1667 29.75 8.12503 34.625 6.50003 33C4.87503 31.375 9.75003 24.3333 9.75003 24.3333C9.75003 24.3333 27.0834 5.91667 29.25 3.75Z" fill="#CCD6DD"/>
<path d="M15.1666 24.3333C15.1666 24.3333 15.7083 24.875 10.8333 29.75C5.95832 34.625 5.41665 34.0833 5.41665 34.0833C5.41665 34.0833 4.87498 33.5417 9.74998 28.6667C14.625 23.7917 15.1666 24.3333 15.1666 24.3333ZM31.4167 4.83333C32.2786 4.83333 33.1053 5.17574 33.7147 5.78524C34.3242 6.39473 34.6667 7.22138 34.6667 8.08333H35.5387C35.6622 7.74208 35.75 7.38458 35.75 7C35.75 6.13805 35.4076 5.3114 34.7981 4.7019C34.1886 4.09241 33.3619 3.75 32.5 3.75C32.1154 3.75 31.7579 3.83775 31.4167 3.96125V4.83333Z" fill="#66757F"/>
</g>
<defs>
<clipPath id="clip0">
<rect width="39" height="39" fill="white" transform="translate(0 0.5)"/>
</clipPath>
</defs>
</svg>
