<svg width="61" height="61" viewBox="0 0 61 61" fill="none" xmlns="http://www.w3.org/2000/svg">
<path d="M48.8 17.7917H47.8087C48.1133 16.9782 48.2766 16.1186 48.2917 15.25C48.2383 13.1826 47.3691 11.2203 45.8738 9.7916C44.3784 8.36294 42.3785 7.58404 40.3108 7.62501C38.2788 7.6689 36.296 8.25828 34.57 9.33145C32.844 10.4046 31.4383 11.9221 30.5 13.725C29.5617 11.9221 28.156 10.4046 26.4299 9.33145C24.7039 8.25828 22.7211 7.6689 20.6892 7.62501C18.6215 7.58404 16.6215 8.36294 15.1262 9.7916C13.6309 11.2203 12.7616 13.1826 12.7083 15.25C12.7233 16.1186 12.8867 16.9782 13.1912 17.7917H12.2C11.5312 17.8552 10.8816 18.0506 10.2887 18.3667C9.69593 18.6828 9.17165 19.1133 8.74622 19.6333C8.32079 20.1533 8.00265 20.7524 7.8102 21.3961C7.61775 22.0398 7.5548 22.7152 7.62499 23.3833V32.5333C7.50625 33.7641 7.82268 34.9976 8.51924 36.0192C9.21579 37.0408 10.2484 37.7859 11.4375 38.125V49.2321C11.5159 50.385 12.04 51.462 12.8986 52.2353C13.7573 53.0085 14.8832 53.4173 16.0379 53.375H44.9621C46.1335 53.4164 47.2738 52.9937 48.1353 52.1989C48.9967 51.4041 49.5096 50.3014 49.5625 49.1304V38.125C50.7516 37.7859 51.7842 37.0408 52.4807 36.0192C53.1773 34.9976 53.4937 33.7641 53.375 32.5333V23.3833C53.4452 22.7152 53.3822 22.0398 53.1898 21.3961C52.9973 20.7524 52.6792 20.1533 52.2538 19.6333C51.8283 19.1133 51.3041 18.6828 50.7112 18.3667C50.1184 18.0506 49.4688 17.8552 48.8 17.7917ZM48.2917 23.3833V32.5333C48.3222 32.7014 48.3222 32.8736 48.2917 33.0417H33.0417V22.875H48.2917C48.3222 23.0431 48.3222 23.2153 48.2917 23.3833ZM40.3108 12.7083C41.0309 12.6664 41.7385 12.9095 42.2807 13.3851C42.8229 13.8607 43.1561 14.5307 43.2083 15.25C43.1561 15.9694 42.8229 16.6393 42.2807 17.1149C41.7385 17.5905 41.0309 17.8336 40.3108 17.7917H34.0583C34.503 16.4338 35.329 15.2326 36.4376 14.3313C37.5463 13.4299 38.8908 12.8666 40.3108 12.7083ZM17.7917 15.25C17.8439 14.5307 18.1771 13.8607 18.7193 13.3851C19.2615 12.9095 19.9691 12.6664 20.6892 12.7083C22.1046 12.8712 23.4437 13.4367 24.5475 14.3377C25.6512 15.2387 26.4733 16.4374 26.9162 17.7917H20.6892C19.9691 17.8336 19.2615 17.5905 18.7193 17.1149C18.1771 16.6393 17.8439 15.9694 17.7917 15.25ZM12.7083 23.3833C12.6778 23.2153 12.6778 23.0431 12.7083 22.875H27.9583V33.0417H12.7083C12.6778 32.8736 12.6778 32.7014 12.7083 32.5333V23.3833ZM16.5208 38.125H27.9583V48.2917H16.5208V38.125ZM33.0417 48.2917V38.125H44.4792V48.2917H33.0417Z" fill="#D64C4C"/>
</svg>
