<svg width="61" height="61" viewBox="0 0 61 61" fill="none" xmlns="http://www.w3.org/2000/svg">
<path d="M6.35425 48.2916V17.7916H54.6459V48.2916C54.6459 51.0875 52.3584 53.375 49.5626 53.375H11.4376C8.64175 53.375 6.35425 51.0875 6.35425 48.2916Z" fill="#CFD8DC"/>
<path d="M54.6459 12.7083V20.3333H6.35425V12.7083C6.35425 9.9125 8.64175 7.625 11.4376 7.625H49.5626C52.3584 7.625 54.6459 9.9125 54.6459 12.7083Z" fill="#5F738B"/>
<path d="M41.9375 16.5209C44.0431 16.5209 45.75 14.814 45.75 12.7084C45.75 10.6028 44.0431 8.89587 41.9375 8.89587C39.8319 8.89587 38.125 10.6028 38.125 12.7084C38.125 14.814 39.8319 16.5209 41.9375 16.5209Z" fill="#5F738B"/>
<path d="M19.0625 16.5209C21.1681 16.5209 22.875 14.814 22.875 12.7084C22.875 10.6028 21.1681 8.89587 19.0625 8.89587C16.9569 8.89587 15.25 10.6028 15.25 12.7084C15.25 14.814 16.9569 16.5209 19.0625 16.5209Z" fill="#5F738B"/>
<path d="M41.9374 3.8125C40.5395 3.8125 39.3958 4.95625 39.3958 6.35417V12.7083C39.3958 14.1063 40.5395 15.25 41.9374 15.25C43.3353 15.25 44.4791 14.1063 44.4791 12.7083V6.35417C44.4791 4.95625 43.3353 3.8125 41.9374 3.8125Z" fill="#B0BEC5"/>
<path d="M19.0624 3.8125C17.6645 3.8125 16.5208 4.95625 16.5208 6.35417V12.7083C16.5208 14.1063 17.6645 15.25 19.0624 15.25C20.4603 15.25 21.6041 14.1063 21.6041 12.7083V6.35417C21.6041 4.95625 20.4603 3.8125 19.0624 3.8125Z" fill="#B0BEC5"/>
<path d="M16.5208 26.6875H24.1458V34.3125H16.5208V26.6875Z" fill="#B0BEC5"/>
<path d="M26.6875 26.6875H34.3125V34.3125H26.6875V26.6875Z" fill="#B0BEC5"/>
<path d="M36.854 26.6875H44.479V34.3125H36.854V26.6875Z" fill="#B0BEC5"/>
<path d="M16.5208 36.8541H24.1458V44.4791H16.5208V36.8541Z" fill="#B0BEC5"/>
<path d="M26.6875 36.8541H34.3125V44.4791H26.6875V36.8541Z" fill="#B0BEC5"/>
<path d="M36.8542 36.8541H44.4792V44.4791H36.8542V36.8541Z" fill="#5F738B"/>
</svg>
