<svg width="61" height="61" viewBox="0 0 61 61" fill="none" xmlns="http://www.w3.org/2000/svg">
<path d="M30.5 0.953125C14.1777 0.953125 0.953125 14.1777 0.953125 30.5C0.953125 46.8223 14.1777 60.0469 30.5 60.0469C46.8223 60.0469 60.0469 46.8223 60.0469 30.5C60.0469 14.1777 46.8223 0.953125 30.5 0.953125ZM30.5 54.3281C17.335 54.3281 6.67188 43.665 6.67188 30.5C6.67188 17.335 17.335 6.67188 30.5 6.67188C43.665 6.67188 54.3281 17.335 54.3281 30.5C54.3281 43.665 43.665 54.3281 30.5 54.3281ZM37.8629 41.8898L27.7479 34.5389C27.3785 34.2648 27.1641 33.8359 27.1641 33.3832V13.8203C27.1641 13.034 27.8074 12.3906 28.5938 12.3906H32.4062C33.1926 12.3906 33.8359 13.034 33.8359 13.8203V30.7025L41.7945 36.4928C42.4379 36.9574 42.5689 37.851 42.1043 38.4943L39.8645 41.5801C39.3998 42.2115 38.5062 42.3545 37.8629 41.8898Z" fill="#5F738B"/>
</svg>
