<svg width="27" height="26" viewBox="0 0 27 26" fill="none" xmlns="http://www.w3.org/2000/svg">
<path d="M6.40179 20.7188C5.95492 20.7188 5.54867 20.6375 5.14242 20.5156C3.47679 19.9469 2.33929 18.4031 2.33929 16.6562C2.33929 15.4781 2.82679 14.3813 3.72054 13.6094C3.96429 13.4062 4.20804 13.2438 4.49242 13.0813L4.77679 12.1469C5.46742 9.79062 7.62054 8.16563 10.058 8.16563C10.3018 8.16563 10.5455 8.16562 10.8299 8.24687C11.0737 8.2875 11.2768 8.32813 11.4799 8.36875L11.6018 8.16563C12.5768 6.37813 14.4455 5.28125 16.4768 5.28125C19.5643 5.28125 22.0424 7.8 22.0424 10.8469C22.0424 11.0094 22.0424 11.1312 22.0018 11.2937V11.4156C22.2455 11.4969 22.4893 11.6187 22.6924 11.7406C24.1955 12.5938 25.0893 14.1781 25.0893 15.925C25.0893 18.1594 23.5455 20.1094 21.3518 20.5969C20.9862 20.6781 20.6205 20.7188 20.2955 20.7188H6.40179Z" fill="white"/>
<path d="M16.4362 6.09375C19.0768 6.09375 21.1893 8.24688 21.1893 10.8469V11.2125C20.0924 11.2938 19.0768 11.7406 18.3049 12.4313C18.8737 12.1063 19.5643 11.9031 20.2955 11.9031C20.5799 11.9031 20.8237 11.9437 21.0674 11.9844C21.5143 12.0656 21.9205 12.2281 22.2862 12.4313C23.4643 13.1219 24.2768 14.4219 24.2768 15.8844C24.2768 17.7937 22.9362 19.3781 21.1893 19.7844C20.9049 19.8656 20.6205 19.9062 20.2955 19.9062H6.40179C6.03617 19.9062 5.71117 19.8656 5.38617 19.7437C4.08617 19.2969 3.15179 18.0781 3.15179 16.6562C3.15179 15.6812 3.59867 14.7875 4.24867 14.2188C4.57367 13.9344 4.89867 13.7312 5.30492 13.6094C5.62992 13.4875 5.99554 13.4062 6.36117 13.4062C7.41742 13.4062 8.35179 13.8937 8.92054 14.6656H8.96117C8.27054 13.4062 6.97054 12.5125 5.46742 12.35C6.03617 10.4 7.82367 8.9375 9.97679 8.9375C10.2205 8.9375 10.4237 8.97813 10.6268 8.97813C11.0737 9.05938 11.4799 9.14062 11.8455 9.34375C13.2674 9.99375 14.3237 11.3344 14.5674 12.9594V12.9187C14.5674 11.0906 13.633 9.46562 12.2112 8.53125C13.1049 7.06875 14.6487 6.09375 16.4362 6.09375ZM16.4362 4.46875C14.2424 4.46875 12.2112 5.60625 11.033 7.43437C10.9924 7.43437 10.9518 7.43438 10.9112 7.39375C10.5862 7.35313 10.3018 7.3125 10.0174 7.3125C7.21429 7.3125 4.73617 9.18125 3.96429 11.9031L3.76117 12.5531C3.55804 12.675 3.35492 12.8375 3.19242 13C2.13617 13.8938 1.52679 15.2344 1.52679 16.6562C1.52679 18.7688 2.86742 20.6375 4.85804 21.2875C5.34554 21.45 5.87367 21.5312 6.40179 21.5312H20.2955C20.7018 21.5312 21.1487 21.4906 21.5549 21.3687C24.1143 20.7594 25.9018 18.525 25.9018 15.8844C25.9018 13.8937 24.8049 12.025 23.0987 11.0094L22.8549 10.8875V10.8469C22.8143 7.35313 19.9705 4.46875 16.4362 4.46875Z" fill="#75D6FF"/>
</svg>
