<svg width="61" height="61" viewBox="0 0 61 61" fill="none" xmlns="http://www.w3.org/2000/svg">
<path d="M19.6344 41.175L21.064 38.8875L18.8719 40.3171L18.2047 36.4093L17.6328 40.3171L15.4406 38.8875L16.8703 41.175L12.9625 41.7468L16.8703 42.3187L15.4406 44.5109L17.6328 43.0812L18.2047 47.0843L18.8719 43.0812L21.064 44.5109L19.6344 42.3187L23.5422 41.7468L19.6344 41.175Z" fill="#75D6FF"/>
<path d="M48.3234 41.175L49.7531 38.8875L47.5609 40.3171L46.989 36.4093L46.4171 40.3171L44.1296 38.8875L45.5593 41.175L41.6515 41.7468L45.6546 42.3187L44.1296 44.5109L46.4171 43.0812L46.989 47.0843L47.5609 43.0812L49.7531 44.5109L48.3234 42.3187L52.3265 41.7468L48.3234 41.175Z" fill="#75D6FF"/>
<path d="M33.9312 41.175L35.4562 38.8875L33.1687 40.3171L32.5969 36.4093L32.025 40.3171L29.8328 38.8875L31.2625 41.175L27.2594 41.7468L31.2625 42.3187L29.8328 44.5109L32.025 43.0812L32.5969 47.0843L33.1687 43.0812L35.4562 44.5109L33.9312 42.3187L37.9344 41.7468L33.9312 41.175Z" fill="#75D6FF"/>
<path d="M12.4859 51.7546L14.0109 49.5624L11.7234 50.9921L11.1515 47.0843L10.5797 50.9921L8.38748 49.5624L9.81717 51.7546L5.81404 52.3265L9.81717 52.8984L8.38748 55.1859L10.5797 53.7562L11.1515 57.664L11.7234 53.7562L14.0109 55.1859L12.4859 52.8984L16.489 52.3265L12.4859 51.7546Z" fill="#75D6FF"/>
<path d="M41.2703 51.7546L42.7 49.5624L40.5078 50.9921L39.9359 47.0843L39.2687 50.9921L37.0765 49.5624L38.5062 51.7546L34.5984 52.3265L38.5062 52.8984L37.0765 55.1859L39.2687 53.7562L39.9359 57.664L40.5078 53.7562L42.7 55.1859L41.2703 52.8984L45.1781 52.3265L41.2703 51.7546Z" fill="#75D6FF"/>
<path d="M26.8781 51.7546L28.3078 49.5624L26.1156 50.9921L25.5437 47.0843L24.9718 50.9921L22.6843 49.5624L24.2093 51.7546L20.2062 52.3265L24.2093 52.8984L22.6843 55.1859L24.9718 53.7562L25.5437 57.664L26.1156 53.7562L28.3078 55.1859L26.8781 52.8984L30.8812 52.3265L26.8781 51.7546Z" fill="#75D6FF"/>
<path d="M20.111 32.4062C19.3485 32.4062 18.586 32.3109 17.8235 32.025C14.8688 31.0719 12.7719 28.3078 12.7719 25.1625C12.7719 23.0656 13.725 21.0641 15.25 19.7297C15.6313 19.3484 16.1078 19.0625 16.5844 18.7766L17.061 17.0609C18.3 12.8672 22.2078 9.9125 26.5922 9.9125C27.0688 9.9125 27.45 9.9125 28.0219 10.0078C28.4031 10.1031 28.7844 10.1031 29.1656 10.2938L29.3563 9.9125C31.1672 6.76719 34.5031 4.76562 38.125 4.76562C43.6531 4.76562 48.1328 9.24531 48.1328 14.7734V15.7266C48.5141 15.9172 48.9906 16.1078 49.3719 16.2984C52.0406 17.8234 53.661 20.6828 53.661 23.7328C53.661 27.7359 50.8969 31.1672 46.9891 32.1203C46.3219 32.3109 45.6547 32.3109 45.0828 32.3109H20.111V32.4062Z" fill="white"/>
<path d="M38.125 6.19531C42.8906 6.19531 46.7031 10.0078 46.7031 14.6781V15.3453C44.7016 15.5359 42.8906 16.2984 41.5563 17.5375C42.6047 16.9656 43.8438 16.5844 45.0828 16.5844C45.5594 16.5844 46.036 16.5844 46.5125 16.6797C47.275 16.8703 48.0375 17.1562 48.7047 17.5375C50.8969 18.7766 52.3266 21.0641 52.3266 23.7328C52.3266 27.1641 49.9438 29.9281 46.7985 30.6906C46.3219 30.7859 45.75 30.8812 45.1781 30.8812H20.111C19.4438 30.8812 18.8719 30.7859 18.3 30.5953C16.0125 29.8328 14.2969 27.6406 14.2969 25.0672C14.2969 23.3516 15.0594 21.7312 16.2985 20.6828C16.8703 20.2062 17.5375 19.825 18.2047 19.5391C18.7766 19.3484 19.4438 19.2531 20.111 19.2531C22.0172 19.2531 23.6375 20.1109 24.7813 21.5406H24.8766C23.6375 19.2531 21.35 17.6328 18.586 17.4422C19.6344 13.9156 22.875 11.3422 26.6875 11.3422C27.0688 11.3422 27.5453 11.3422 27.9266 11.4375C28.6891 11.5328 29.4516 11.7234 30.1188 12.1047C32.6922 13.2484 34.5985 15.6312 34.9797 18.5859V18.4906C34.9797 15.25 33.2641 12.2953 30.6906 10.5797C32.1203 8.00625 34.8844 6.19531 38.125 6.19531V6.19531ZM38.125 3.33594C34.2172 3.33594 30.5 5.3375 28.4031 8.67344H28.1172C27.5453 8.57813 26.9735 8.57812 26.4969 8.57812C21.4453 8.57812 16.9656 11.9141 15.6313 16.775L15.3453 17.9187C14.9641 18.1094 14.6781 18.3953 14.2969 18.6812C12.3906 20.3016 11.3422 22.6844 11.3422 25.2578C11.3422 29.0703 13.725 32.3109 17.3469 33.55C18.2047 33.8359 19.1578 34.0266 20.111 34.0266H45.0828C45.8453 34.0266 46.6078 33.9312 47.3703 33.7406C51.9453 32.6922 55.186 28.6891 55.186 23.9234C55.186 20.3016 53.2797 16.9656 50.1344 15.25C49.9438 15.1547 49.8485 15.0594 49.6578 14.9641V14.8687C49.6578 8.48281 44.511 3.33594 38.125 3.33594V3.33594Z" fill="#75D6FF"/>
</svg>
