<svg width="27" height="26" viewBox="0 0 27 26" fill="none" xmlns="http://www.w3.org/2000/svg">
<path d="M10.4446 18.4438C10.2009 19.0938 10.404 19.7844 10.8915 19.9875C11.379 20.15 11.9884 19.7844 12.2321 19.0938C12.5165 18.3219 12.5165 17.225 12.354 16.0063C11.4196 16.8188 10.729 17.6313 10.4446 18.4438Z" fill="#75D6FF"/>
<path d="M15.9697 19.0938C16.254 18.3219 16.254 17.225 16.0915 16.0063C15.1572 16.8188 14.4665 17.6719 14.1821 18.4438C13.9384 19.0938 14.1415 19.7844 14.629 19.9875C15.1165 20.15 15.7259 19.7438 15.9697 19.0938Z" fill="#75D6FF"/>
<path d="M19.7884 16.0063C18.854 16.8188 18.1634 17.6719 17.879 18.4438C17.6353 19.0938 17.8384 19.7844 18.3259 19.9875C18.8134 20.15 19.4228 19.7844 19.6665 19.0938C19.9915 18.3219 19.9915 17.225 19.7884 16.0063Z" fill="#75D6FF"/>
<path d="M6.70715 18.4438C6.4634 19.0938 6.66652 19.7844 7.15402 19.9875C7.64152 20.15 8.2509 19.7844 8.49465 19.0938C8.77902 18.3219 8.77902 17.225 8.61652 16.0063C7.68215 16.8188 6.99152 17.6313 6.70715 18.4438Z" fill="#75D6FF"/>
<path d="M7.51965 23.6031C7.2759 24.2531 7.47902 24.9438 7.96652 25.1469C8.45402 25.3094 9.0634 24.9438 9.30715 24.2531C9.59152 23.4813 9.59152 22.3844 9.42902 21.1656C8.49465 21.9781 7.80402 22.8313 7.51965 23.6031Z" fill="#75D6FF"/>
<path d="M13.0446 24.2531C13.329 23.4813 13.329 22.3844 13.1665 21.1656C12.2321 21.9781 11.5415 22.8313 11.2571 23.6031C11.0134 24.2531 11.2165 24.9438 11.704 25.1469C12.1915 25.3094 12.8009 24.9438 13.0446 24.2531Z" fill="#75D6FF"/>
<path d="M16.8634 21.1656C15.929 21.9781 15.2384 22.8313 14.954 23.6031C14.7103 24.2531 14.9134 24.9438 15.4009 25.1469C15.8884 25.3094 16.4978 24.9438 16.7415 24.2531C17.0665 23.4813 17.0665 22.425 16.8634 21.1656Z" fill="#75D6FF"/>
<path d="M3.78215 23.6031C3.5384 24.2531 3.74152 24.9438 4.22902 25.1469C4.71652 25.3094 5.3259 24.9438 5.56965 24.2531C5.85402 23.4813 5.85402 22.3844 5.69152 21.1656C4.75715 21.9781 4.06652 22.8313 3.78215 23.6031Z" fill="#75D6FF"/>
<path d="M8.53527 13.6906C8.21027 13.6906 7.84465 13.65 7.51965 13.5281C6.17902 13.0812 5.3259 11.8625 5.3259 10.4812C5.3259 9.54687 5.73215 8.65312 6.42277 8.04374C6.58527 7.88124 6.7884 7.75937 7.03215 7.63749L7.23527 6.90624C7.7634 5.03749 9.51027 3.73749 11.4196 3.73749C11.6228 3.73749 11.8259 3.73749 12.029 3.77812C12.1915 3.81874 12.3946 3.85937 12.5571 3.89999L12.6384 3.73749C13.4103 2.31562 14.9134 1.46249 16.4978 1.46249C18.9353 1.46249 20.9259 3.45312 20.9259 5.89062V6.33749C21.129 6.41874 21.2915 6.49999 21.4946 6.58124C22.6728 7.27187 23.404 8.53124 23.404 9.87187C23.404 11.6594 22.1853 13.2031 20.4384 13.5687C20.154 13.65 19.8696 13.65 19.5853 13.65L8.53527 13.6906Z" fill="white"/>
<path d="M16.4978 2.1125C18.5696 2.1125 20.2759 3.81875 20.2759 5.89062V6.175C19.3821 6.25625 18.6103 6.58125 18.0009 7.15C18.4478 6.86563 19.0165 6.74375 19.5853 6.74375C19.7884 6.74375 19.9915 6.78438 20.1946 6.78438C20.5196 6.86563 20.8446 6.9875 21.1696 7.15C22.104 7.67812 22.754 8.73438 22.754 9.9125C22.754 11.4156 21.6978 12.675 20.2759 13C20.0321 13.0406 19.829 13.0813 19.5446 13.0813H8.53527C8.2509 13.0813 7.96652 13.0406 7.72277 12.9594C6.70715 12.6344 5.93527 11.6594 5.93527 10.5219C5.93527 9.75 6.26027 9.05937 6.82902 8.57188C7.07277 8.36875 7.35715 8.20625 7.68215 8.08437C7.96652 8.00312 8.2509 7.92188 8.53527 7.92188C9.34777 7.92188 10.1196 8.32812 10.5665 8.9375H10.6071C10.079 7.92188 9.02277 7.23125 7.84465 7.10938C8.29152 5.56563 9.7134 4.42812 11.4196 4.42812C11.5821 4.42812 11.7853 4.42812 11.9478 4.46875C12.2728 4.50938 12.6384 4.63125 12.9228 4.75312C14.0603 5.28125 14.9134 6.3375 15.0759 7.59688V7.55625C15.0759 6.09375 14.3446 4.79375 13.2071 4.0625C13.8165 2.88437 15.0759 2.1125 16.4978 2.1125ZM16.4978 0.8125C14.7509 0.8125 13.1259 1.70625 12.2321 3.16875H12.1103C11.8259 3.12813 11.6228 3.12812 11.379 3.12812C9.14465 3.12812 7.19465 4.63125 6.54465 6.74375L6.38215 7.27187C6.21965 7.35312 6.05715 7.475 5.93527 7.59688C5.08215 8.32813 4.59465 9.38437 4.59465 10.5219C4.59465 12.1875 5.6509 13.65 7.23527 14.1781C7.64152 14.3 8.04777 14.3813 8.45402 14.3813H19.5446C19.8696 14.3813 20.2353 14.3406 20.5603 14.2594C22.5915 13.8125 24.0134 12.025 24.0134 9.9125C24.0134 8.32812 23.1603 6.86562 21.779 6.05312C21.6978 6.0125 21.6571 5.97188 21.5759 5.93125V5.89062C21.5759 3.0875 19.3009 0.8125 16.4978 0.8125Z" fill="#B6C1D1"/>
</svg>
