<svg width="16" height="17" viewBox="0 0 16 17" fill="none" xmlns="http://www.w3.org/2000/svg">
<path d="M12.9333 5.39333L11.1067 3.56666C10.8683 3.34273 10.5559 3.21424 10.2289 3.20563C9.90191 3.19703 9.58319 3.30891 9.33333 3.52L3.33333 9.52C3.11784 9.73731 2.98367 10.0221 2.95333 10.3267L2.66667 13.1067C2.65769 13.2043 2.67036 13.3027 2.70377 13.3949C2.73719 13.4871 2.79053 13.5708 2.86 13.64C2.92229 13.7018 2.99617 13.7507 3.0774 13.7838C3.15862 13.817 3.2456 13.8338 3.33333 13.8333H3.39333L6.17333 13.58C6.47786 13.5497 6.76269 13.4155 6.98 13.2L12.98 7.2C13.2129 6.95397 13.3387 6.62567 13.33 6.28702C13.3212 5.94837 13.1786 5.627 12.9333 5.39333ZM6.05333 12.2467L4.05333 12.4333L4.23333 10.4333L8 6.71333L9.8 8.51333L6.05333 12.2467ZM10.6667 7.62L8.88 5.83333L10.18 4.5L12 6.32L10.6667 7.62Z" fill="#4F7673"/>
</svg>
