<svg width="61" height="61" viewBox="0 0 61 61" fill="none" xmlns="http://www.w3.org/2000/svg">
<path d="M26.6875 53.375C26.6875 53.375 22.875 53.375 22.875 49.5625C22.875 45.75 26.6875 34.3125 41.9375 34.3125C57.1875 34.3125 61 45.75 61 49.5625C61 53.375 57.1875 53.375 57.1875 53.375H26.6875ZM41.9375 30.5C44.9709 30.5 47.8801 29.295 50.025 27.15C52.17 25.0051 53.375 22.0959 53.375 19.0625C53.375 16.0291 52.17 13.1199 50.025 10.975C47.8801 8.83002 44.9709 7.625 41.9375 7.625C38.9041 7.625 35.9949 8.83002 33.85 10.975C31.705 13.1199 30.5 16.0291 30.5 19.0625C30.5 22.0959 31.705 25.0051 33.85 27.15C35.9949 29.295 38.9041 30.5 41.9375 30.5V30.5Z" fill="#C6E6FB"/>
<path fill-rule="evenodd" clip-rule="evenodd" d="M19.886 53.375C19.3208 52.1848 19.039 50.8799 19.0625 49.5625C19.0625 44.3965 21.655 39.0781 26.4435 35.38C24.0534 34.6435 21.5633 34.2834 19.0625 34.3125C3.8125 34.3125 0 45.75 0 49.5625C0 53.375 3.8125 53.375 3.8125 53.375H19.886Z" fill="#C6E6FB"/>
<path d="M17.1562 30.5C19.6841 30.5 22.1084 29.4958 23.8959 27.7084C25.6833 25.9209 26.6875 23.4966 26.6875 20.9688C26.6875 18.4409 25.6833 16.0166 23.8959 14.2291C22.1084 12.4417 19.6841 11.4375 17.1562 11.4375C14.6284 11.4375 12.2041 12.4417 10.4166 14.2291C8.62918 16.0166 7.625 18.4409 7.625 20.9688C7.625 23.4966 8.62918 25.9209 10.4166 27.7084C12.2041 29.4958 14.6284 30.5 17.1562 30.5V30.5Z" fill="#C6E6FB"/>
</svg>
