<svg width="61" height="61" viewBox="0 0 61 61" fill="none" xmlns="http://www.w3.org/2000/svg">
<path d="M38.6784 23.9643C40.7829 23.9643 42.4909 25.6723 42.4909 27.7768V42.4799C42.4909 45.6584 41.2282 48.7066 38.9807 50.9541C36.7332 53.2016 33.685 54.4643 30.5065 54.4643C27.3281 54.4643 24.2798 53.2016 22.0323 50.9541C19.7848 48.7066 18.5222 45.6584 18.5222 42.4799V27.7768C18.5222 25.6723 20.228 23.9643 22.3347 23.9643H38.6784ZM8.16965 23.9643L17.7161 23.9599C16.9536 24.8815 16.4613 26.0339 16.3633 27.2975L16.3415 27.7768V42.4799C16.3415 44.9483 16.9754 47.2706 18.0843 49.2923C16.5918 49.9435 14.9606 50.2128 13.338 50.0758C11.7154 49.9388 10.1524 49.3999 8.79022 48.5077C7.42801 47.6155 6.30944 46.3981 5.53549 44.9654C4.76154 43.5327 4.35657 41.9298 4.35715 40.3014V27.7768C4.35933 25.6723 6.06515 23.9643 8.17183 23.9643H8.16965ZM43.2969 23.9599L52.8304 23.9643C54.9349 23.9643 56.6429 25.6723 56.6429 27.7768V40.3036C56.6435 41.9313 56.2388 43.5336 55.4654 44.9658C54.6919 46.3981 53.574 47.6152 52.2126 48.5074C50.8511 49.3995 49.2889 49.9386 47.6669 50.0761C46.045 50.2135 44.4144 49.9449 42.9222 49.2945L43.0442 49.0723C43.9788 47.3011 44.5474 45.3056 44.652 43.1902L44.6694 42.4799V27.7768C44.6694 26.3258 44.1531 24.9969 43.2969 23.9599ZM30.5 6.53571C31.5013 6.53571 32.4929 6.73293 33.418 7.11612C34.3431 7.49932 35.1836 8.06097 35.8917 8.76902C36.5997 9.47706 37.1614 10.3176 37.5446 11.2427C37.9278 12.1678 38.125 13.1594 38.125 14.1607C38.125 15.162 37.9278 16.1536 37.5446 17.0787C37.1614 18.0038 36.5997 18.8443 35.8917 19.5524C35.1836 20.2604 34.3431 20.8221 33.418 21.2053C32.4929 21.5885 31.5013 21.7857 30.5 21.7857C28.4777 21.7857 26.5383 20.9824 25.1083 19.5524C23.6783 18.1224 22.875 16.183 22.875 14.1607C22.875 12.1384 23.6783 10.199 25.1083 8.76902C26.5383 7.33905 28.4777 6.53571 30.5 6.53571V6.53571ZM47.9351 8.71428C48.7934 8.71428 49.6433 8.88333 50.4362 9.21178C51.2292 9.54023 51.9497 10.0216 52.5566 10.6285C53.1634 11.2354 53.6449 11.9559 53.9733 12.7489C54.3018 13.5418 54.4708 14.3917 54.4708 15.25C54.4708 16.1083 54.3018 16.9581 53.9733 17.7511C53.6449 18.544 53.1634 19.2645 52.5566 19.8714C51.9497 20.4783 51.2292 20.9597 50.4362 21.2882C49.6433 21.6167 48.7934 21.7857 47.9351 21.7857C46.2017 21.7857 44.5393 21.0971 43.3137 19.8714C42.088 18.6458 41.3994 16.9834 41.3994 15.25C41.3994 13.5166 42.088 11.8542 43.3137 10.6285C44.5393 9.40286 46.2017 8.71428 47.9351 8.71428V8.71428ZM13.0649 8.71428C13.9232 8.71428 14.7731 8.88333 15.566 9.21178C16.359 9.54023 17.0794 10.0216 17.6863 10.6285C18.2932 11.2354 18.7747 11.9559 19.1031 12.7489C19.4316 13.5418 19.6006 14.3917 19.6006 15.25C19.6006 16.1083 19.4316 16.9581 19.1031 17.7511C18.7747 18.544 18.2932 19.2645 17.6863 19.8714C17.0794 20.4783 16.359 20.9597 15.566 21.2882C14.7731 21.6167 13.9232 21.7857 13.0649 21.7857C11.3315 21.7857 9.66913 21.0971 8.44345 19.8714C7.21777 18.6458 6.52918 16.9834 6.52918 15.25C6.52918 13.5166 7.21777 11.8542 8.44345 10.6285C9.66913 9.40286 11.3315 8.71428 13.0649 8.71428V8.71428Z" fill="#9DACB9"/>
</svg>
