<svg width="39" height="40" viewBox="0 0 39 40" fill="none" xmlns="http://www.w3.org/2000/svg">
<g clip-path="url(#clip0)">
<path d="M10.0974 23.3729H19.6249V39.5H10.0974V23.3729Z" fill="#855C52"/>
<path d="M22.5499 22.5198H32.3731V32.4495H22.5499V22.5198Z" fill="white"/>
<path d="M34.6673 17.8306L20.7248 5.14041C20.0515 4.52799 18.9485 4.52799 18.2751 5.14041L4.32958 17.8306C3.65622 18.4461 3.10474 19.6923 3.10474 20.6033V37.8456C3.10474 38.7566 3.85122 39.5031 4.75919 39.5031H11.1607V28.1291C11.1607 27.4344 11.7274 26.8677 12.419 26.8677H17.4647C18.1563 26.8677 18.7261 27.4344 18.7261 28.1291V39.5H34.2377C35.1487 39.5 35.8952 38.7566 35.8952 37.8425V20.6003C35.8952 19.6923 35.3437 18.4431 34.6673 17.8306V17.8306ZM26.6693 31.4989H24.8686C24.0276 31.4989 23.336 30.8103 23.336 29.9663V28.4277H26.6693V31.4989ZM26.6693 26.9652H23.336V24.9024C23.336 24.0615 24.0276 23.3699 24.8686 23.3699H26.6693V26.9652ZM31.462 29.9663C31.462 30.8073 30.7734 31.4989 29.9294 31.4989H28.1287V28.4277H31.462V29.9663V29.9663ZM31.462 26.9652H28.1318V23.3729H29.9325C30.3387 23.3737 30.728 23.5354 31.0153 23.8227C31.3025 24.1099 31.4642 24.4993 31.465 24.9055V26.9652H31.462Z" fill="#FCC21B"/>
<path d="M19.7194 8.51023L36.1664 23.7416L36.5503 23.7446L36.724 18.1841L19.7194 2.43781L2.31562 18.1841L2.20593 23.382L3.27234 23.3912L19.7194 8.51023Z" fill="#ED6C30"/>
<path d="M13.0589 34.4117C13.6647 34.4117 14.1558 33.9206 14.1558 33.3148C14.1558 32.709 13.6647 32.218 13.0589 32.218C12.4531 32.218 11.962 32.709 11.962 33.3148C11.962 33.9206 12.4531 34.4117 13.0589 34.4117Z" fill="white"/>
</g>
<defs>
<clipPath id="clip0">
<rect width="39" height="39" fill="white" transform="translate(0 0.5)"/>
</clipPath>
</defs>
</svg>
