<svg width="18" height="17" viewBox="0 0 18 17" fill="none" xmlns="http://www.w3.org/2000/svg">
<g clip-path="url(#clip0)">
<path d="M15 6.5H11.4284L8.14406 0.751875C8.10027 0.675346 8.03703 0.611747 7.96075 0.567516C7.88447 0.523286 7.79786 0.499994 7.70969 0.5L5.66281 0.5C5.33062 0.5 5.09094 0.817812 5.18219 1.13719L6.71437 6.5H3.5L2.15 4.7C2.05562 4.57406 1.90719 4.5 1.75 4.5H0.500312C0.174999 4.5 -0.0637508 4.80563 0.0153117 5.12125L0.999999 8.5L0.0153117 11.8787C-0.0637508 12.1944 0.174999 12.5 0.500312 12.5H1.75C1.9075 12.5 2.05562 12.4259 2.15 12.3L3.5 10.5H6.71437L5.18219 15.8625C5.09094 16.1819 5.33062 16.5 5.66281 16.5H7.70969C7.88906 16.5 8.05469 16.4038 8.14375 16.2481L11.4284 10.5H15C16.1047 10.5 18 9.60469 18 8.5C18 7.39531 16.1047 6.5 15 6.5Z" fill="white"/>
</g>
<defs>
<clipPath id="clip0">
<rect width="18" height="16" fill="white" transform="translate(0 0.5)"/>
</clipPath>
</defs>
</svg>
