<svg width="27" height="26" viewBox="0 0 27 26" fill="none" xmlns="http://www.w3.org/2000/svg">
<g clip-path="url(#clip0)">
<path d="M9.08043 13.5281C11.167 13.5281 12.8586 11.8366 12.8586 9.75C12.8586 7.6634 11.167 5.97188 9.08043 5.97188C6.99383 5.97188 5.30231 7.6634 5.30231 9.75C5.30231 11.8366 6.99383 13.5281 9.08043 13.5281Z" fill="#FFCE31"/>
<path d="M10.5836 5.32188L9.08046 1.625L7.57733 5.32188C8.06483 5.24063 8.59296 5.2 9.08046 5.2C9.60858 5.2 10.0961 5.24063 10.5836 5.32188Z" fill="#FFCE31"/>
<path d="M7.57733 14.1781L9.08046 17.875L10.5836 14.1781C10.0961 14.2594 9.56796 14.3 9.08046 14.3C8.55233 14.3 8.06483 14.2594 7.57733 14.1781Z" fill="#FFCE31"/>
<path d="M13.5085 11.2531L17.2054 9.75L13.5085 8.24687C13.5898 8.73437 13.6304 9.2625 13.6304 9.75C13.6304 10.2781 13.5898 10.7656 13.5085 11.2531Z" fill="#FFCE31"/>
<path d="M4.65232 8.24687L0.955444 9.75L4.65232 11.2531C4.57107 10.7656 4.53044 10.2375 4.53044 9.75C4.53044 9.22187 4.57107 8.73437 4.65232 8.24687Z" fill="#FFCE31"/>
<path d="M13.2648 7.71876L14.8086 4.02188L11.1117 5.56563C11.5179 5.85001 11.9242 6.17501 12.2898 6.54063C12.6554 6.90626 12.9804 7.27188 13.2648 7.71876Z" fill="#FFCE31"/>
<path d="M4.89604 11.7812L3.35229 15.4781L7.04917 13.9344C6.64292 13.65 6.23667 13.325 5.87104 12.9594C5.50542 12.5937 5.18042 12.2281 4.89604 11.7812Z" fill="#FFCE31"/>
<path d="M11.1117 13.9344L14.8086 15.4781L13.2648 11.7812C12.9804 12.1875 12.6554 12.5937 12.2898 12.9594C11.9242 13.325 11.5586 13.65 11.1117 13.9344Z" fill="#FFCE31"/>
<path d="M7.04917 5.56563L3.35229 4.02188L4.89604 7.71876C5.18042 7.31251 5.50542 6.90626 5.87104 6.54063C6.23667 6.17501 6.60229 5.85001 7.04917 5.56563Z" fill="#FFCE31"/>
<path d="M7.13042 23.6031C6.72417 23.6031 6.31792 23.5219 5.9523 23.4C4.40855 22.8719 3.35229 21.4094 3.35229 19.7437C3.35229 18.6469 3.8398 17.5906 4.6523 16.8594C4.85542 16.6562 5.09917 16.4937 5.34292 16.3719L5.58667 15.4781C6.19605 13.2437 8.2273 11.7 10.5023 11.7C10.746 11.7 10.9492 11.7 11.2335 11.7406L11.8429 11.8625L11.9242 11.6594C12.8585 9.99375 14.6054 8.9375 16.4742 8.9375C19.3585 8.9375 21.6742 11.2937 21.6742 14.2187V14.7469C21.8773 14.8281 22.121 14.95 22.3242 15.0719C23.7054 15.8844 24.5585 17.3875 24.5585 19.0125C24.5585 21.125 23.1367 22.9531 21.0648 23.4406C20.7398 23.5219 20.3742 23.5625 20.0492 23.5625L7.13042 23.6031Z" fill="white"/>
<path d="M16.5148 9.79063C18.9523 9.79063 20.9429 11.8219 20.9429 14.3V14.6656C19.9273 14.7469 18.9929 15.1531 18.2617 15.8031C18.7898 15.4781 19.4398 15.3156 20.1304 15.3156C20.3742 15.3156 20.6179 15.3563 20.8617 15.3969C21.2679 15.4781 21.6336 15.6406 21.9992 15.8438C23.0961 16.4938 23.8679 17.7125 23.8679 19.0938C23.8679 20.8813 22.6492 22.3844 20.9836 22.75C20.6992 22.8313 20.4554 22.8313 20.1304 22.8313H7.13044C6.80544 22.8313 6.48044 22.7906 6.19607 22.6688C4.97732 22.2625 4.12419 21.125 4.12419 19.7438C4.12419 18.8094 4.53044 17.9969 5.18044 17.4281C5.46482 17.1844 5.78982 16.9813 6.15544 16.8594C6.48044 16.7375 6.80544 16.6969 7.17107 16.6969C8.14607 16.6969 8.99919 17.1844 9.56794 17.875H9.60857C8.95857 16.6563 7.78044 15.8438 6.35857 15.6813C6.88669 13.8125 8.55232 12.4719 10.5429 12.4719C10.7461 12.4719 10.9492 12.5125 11.1523 12.5125C11.5586 12.5531 11.9242 12.675 12.2898 12.8375C13.6304 13.4469 14.6054 14.7063 14.8492 16.25V16.2094C14.8492 14.4625 13.9554 12.9594 12.6554 12.0656C13.3867 10.725 14.8086 9.79063 16.5148 9.79063ZM16.5148 8.28751C14.4836 8.28751 12.5742 9.34376 11.4773 11.0906H11.3554C11.0304 11.05 10.7867 11.0094 10.5023 11.0094C7.90232 11.0094 5.54607 12.7969 4.85544 15.3156L4.69294 15.925C4.48982 16.0469 4.32732 16.1688 4.16482 16.3313C3.14919 17.1844 2.58044 18.4438 2.58044 19.7844C2.58044 21.775 3.83982 23.5219 5.70857 24.1719C6.15544 24.3344 6.64294 24.4156 7.13044 24.4156H20.0898C20.4961 24.4156 20.8617 24.375 21.2679 24.2938C23.6648 23.725 25.3304 21.6125 25.3304 19.1344C25.3304 17.2656 24.3148 15.4781 22.6898 14.5438L22.4461 14.4219V14.3813C22.4461 10.9688 19.8054 8.28751 16.5148 8.28751Z" fill="#75D6FF"/>
</g>
<defs>
<clipPath id="clip0">
<rect width="26" height="26" fill="white" transform="translate(0.142944)"/>
</clipPath>
</defs>
</svg>
