<svg width="26" height="26" viewBox="0 0 26 26" fill="none" xmlns="http://www.w3.org/2000/svg">
<path d="M8.12499 11.5375C10.0097 11.5375 11.5375 10.0097 11.5375 8.12499C11.5375 6.24032 10.0097 4.71249 8.12499 4.71249C6.24032 4.71249 4.71249 6.24032 4.71249 8.12499C4.71249 10.0097 6.24032 11.5375 8.12499 11.5375Z" fill="#FFCE31"/>
<path d="M9.50624 4.14375L8.12499 0.8125L6.74374 4.14375C7.19062 4.0625 7.63749 4.02187 8.12499 4.02187C8.61249 4.02187 9.05937 4.0625 9.50624 4.14375Z" fill="#FFCE31"/>
<path d="M6.74374 12.1063L8.12499 15.4375L9.50624 12.1063C9.05937 12.1875 8.61249 12.2281 8.12499 12.2281C7.63749 12.2281 7.19062 12.1875 6.74374 12.1063Z" fill="#FFCE31"/>
<path d="M12.1062 9.50624L15.4375 8.12499L12.1062 6.74374C12.1875 7.19062 12.2281 7.63749 12.2281 8.12499C12.2281 8.61249 12.1875 9.05937 12.1062 9.50624Z" fill="#FFCE31"/>
<path d="M4.14375 6.74374L0.8125 8.12499L4.14375 9.50624C4.0625 9.05937 4.02187 8.61249 4.02187 8.12499C4.02187 7.63749 4.0625 7.19062 4.14375 6.74374Z" fill="#FFCE31"/>
<path d="M11.9031 6.29689L13.2844 2.96564L9.95312 4.34689C10.3187 4.59064 10.6844 4.87501 11.0094 5.24064C11.375 5.56564 11.6594 5.93126 11.9031 6.29689Z" fill="#FFCE31"/>
<path d="M4.34687 9.95312L2.96562 13.2844L6.29687 11.9031C5.93125 11.6594 5.56562 11.375 5.24062 11.0094C4.875 10.6844 4.59062 10.3594 4.34687 9.95312Z" fill="#FFCE31"/>
<path d="M9.95312 11.9031L13.2844 13.2844L11.9031 9.95312C11.6594 10.3187 11.375 10.6844 11.0094 11.0094C10.6844 11.375 10.3594 11.6594 9.95312 11.9031Z" fill="#FFCE31"/>
<path d="M6.29687 4.34689L2.96562 2.96564L4.34687 6.29689C4.59062 5.93126 4.875 5.56564 5.24062 5.24064C5.56562 4.87501 5.93125 4.59064 6.29687 4.34689Z" fill="#FFCE31"/>
<path d="M9.74999 13.6094C9.42499 13.6094 9.05937 13.5687 8.73437 13.4469C7.43437 13 6.54062 11.7812 6.54062 10.4C6.54062 9.46562 6.94687 8.61249 7.63749 8.00312C7.79999 7.84062 8.00312 7.71874 8.20624 7.59687L8.40937 6.86562C8.93749 5.03749 10.6437 3.73749 12.5937 3.73749C12.7969 3.73749 13 3.73749 13.2031 3.77812C13.3656 3.81874 13.5687 3.85937 13.7312 3.89999L13.8125 3.73749C14.5844 2.35624 16.0875 1.46249 17.6719 1.46249C20.1094 1.46249 22.1 3.41249 22.1 5.84999V6.29687C22.3031 6.37812 22.4656 6.45937 22.6281 6.54062C23.8062 7.23124 24.5375 8.49062 24.5375 9.83124C24.5375 11.6187 23.3187 13.1219 21.5719 13.5281C21.2875 13.6094 21.0031 13.6094 20.7187 13.6094H9.74999Z" fill="white"/>
<path d="M17.7125 2.07187C19.7844 2.07187 21.4906 3.7375 21.4906 5.80938V6.09375C20.6375 6.175 19.825 6.5 19.2156 7.02812C19.6625 6.74375 20.2313 6.62187 20.8 6.62187C21.0031 6.62187 21.2063 6.6625 21.4094 6.6625C21.7344 6.74375 22.0594 6.86562 22.3844 7.02812C23.3188 7.55625 23.9688 8.57188 23.9688 9.75C23.9688 11.2531 22.9125 12.5125 21.5313 12.7969C21.2875 12.8375 21.0844 12.8781 20.8406 12.8781H9.75001C9.46563 12.8781 9.18126 12.8375 8.93751 12.7562C7.92188 12.4312 7.19063 11.4563 7.19063 10.3187C7.19063 9.54688 7.51563 8.85625 8.08438 8.40938C8.32813 8.20625 8.61251 8.04375 8.93751 7.92188C9.22188 7.84062 9.50626 7.75938 9.79063 7.75938C10.6031 7.75938 11.375 8.16563 11.8219 8.775H11.8625C11.3344 7.75938 10.2781 7.06875 9.10001 6.94688C9.54688 5.40313 10.9688 4.26562 12.675 4.26562C12.8375 4.26562 13.0406 4.26563 13.2031 4.30625C13.5281 4.34688 13.8938 4.46875 14.1781 4.59063C15.3156 5.07812 16.1688 6.175 16.3313 7.43437V7.39375C16.3313 5.93125 15.6 4.67188 14.4625 3.94062C15.0313 2.88437 16.2906 2.07187 17.7125 2.07187ZM17.7125 0.8125C15.9656 0.8125 14.3813 1.70625 13.4469 3.12812H13.325C13.0406 3.0875 12.8375 3.0875 12.5938 3.0875C10.3594 3.0875 8.40938 4.55 7.80001 6.70312L7.63751 7.19063C7.47501 7.27188 7.31251 7.39375 7.19063 7.51562C6.33751 8.24687 5.85001 9.30313 5.85001 10.4C5.85001 12.0656 6.90626 13.5281 8.49063 14.0562C8.89688 14.1781 9.30313 14.2594 9.70938 14.2594H20.7188C21.0438 14.2594 21.3688 14.2188 21.7344 14.1375C23.7656 13.6906 25.1875 11.9031 25.1875 9.83125C25.1875 8.24688 24.3344 6.78438 22.9531 6.0125C22.8719 5.97188 22.8313 5.93125 22.75 5.89062V5.85C22.75 3.0875 20.475 0.8125 17.7125 0.8125Z" fill="#B6C1D1"/>
<path d="M11.7 18.6875C11.4562 19.3375 11.6594 19.9875 12.1469 20.15C12.6344 20.3125 13.2031 19.9469 13.4469 19.2969C13.7312 18.5656 13.7313 17.5094 13.5687 16.3312C12.6344 17.1437 11.9437 17.9562 11.7 18.6875Z" fill="#75D6FF"/>
<path d="M17.0219 19.3375C17.3062 18.6062 17.3062 17.55 17.1437 16.3719C16.25 17.1437 15.6 17.9562 15.3156 18.7281C15.0719 19.3781 15.275 20.0281 15.7625 20.1906C16.25 20.3531 16.7781 19.9469 17.0219 19.3375Z" fill="#75D6FF"/>
<path d="M20.7187 16.3719C19.825 17.1437 19.175 17.9562 18.8906 18.7281C18.6469 19.3781 18.85 20.0281 19.3375 20.1906C19.825 20.3531 20.3937 19.9875 20.6375 19.3375C20.8812 18.5656 20.8812 17.55 20.7187 16.3719Z" fill="#75D6FF"/>
<path d="M8.08438 18.6875C7.84063 19.3375 8.04375 19.9875 8.53125 20.15C9.01875 20.3125 9.5875 19.9469 9.83125 19.2969C10.1156 18.5656 10.1156 17.5094 9.95313 16.3312C9.01875 17.1437 8.36875 17.9562 8.08438 18.6875Z" fill="#75D6FF"/>
<path d="M8.85625 23.6844C8.6125 24.3344 8.81562 24.9844 9.30312 25.1469C9.79062 25.3094 10.3594 24.9438 10.6031 24.2938C10.8875 23.5625 10.8875 22.5063 10.725 21.3281C9.79062 22.1 9.14062 22.9125 8.85625 23.6844Z" fill="#75D6FF"/>
<path d="M14.1781 24.2938C14.4625 23.5625 14.4625 22.5063 14.3 21.3281C13.4062 22.1 12.7563 22.9125 12.4719 23.6844C12.2281 24.3344 12.4313 24.9844 12.9187 25.1469C13.4062 25.3094 13.9344 24.9438 14.1781 24.2938Z" fill="#75D6FF"/>
<path d="M17.875 21.3281C16.9812 22.1 16.3312 22.9125 16.0469 23.6844C15.8031 24.3344 16.0062 24.9844 16.4937 25.1469C16.9812 25.3094 17.55 24.9438 17.7937 24.2938C18.0375 23.5625 18.0781 22.5063 17.875 21.3281Z" fill="#75D6FF"/>
<path d="M5.28125 23.6844C5.0375 24.3344 5.24062 24.9844 5.72812 25.1469C6.21562 25.3094 6.78437 24.9438 7.02812 24.2938C7.3125 23.5625 7.3125 22.5063 7.15 21.3281C6.21562 22.1 5.525 22.9125 5.28125 23.6844Z" fill="#75D6FF"/>
</svg>
