<svg width="27" height="26" viewBox="0 0 27 26" fill="none" xmlns="http://www.w3.org/2000/svg">
<path d="M8.89957 24.2531L11.7433 21.3281C10.7277 21.125 9.79332 20.7187 8.94019 20.15L8.89957 24.2531Z" fill="#FFE62E"/>
<path d="M18.2433 1.74687L15.3996 4.67187C16.4152 4.875 17.3496 5.28125 18.2027 5.85L18.2433 1.74687Z" fill="#FFE62E"/>
<path d="M2.31833 17.6719L6.42145 17.6313C5.8527 16.7781 5.44645 15.8438 5.24333 14.8281L2.31833 17.6719Z" fill="#FFE62E"/>
<path d="M24.8246 8.32812L20.7215 8.36875C21.2496 9.22188 21.6558 10.1562 21.8996 11.1719L24.8246 8.32812Z" fill="#FFE62E"/>
<path d="M2.31833 8.32812L5.24333 11.1719C5.44645 10.1562 5.8527 9.22188 6.42145 8.36875L2.31833 8.32812Z" fill="#FFE62E"/>
<path d="M24.8246 17.6719L21.8996 14.8281C21.6965 15.8438 21.2902 16.7781 20.7215 17.6313L24.8246 17.6719Z" fill="#FFE62E"/>
<path d="M8.89957 1.74687L8.94019 5.85C9.79332 5.32187 10.7277 4.91562 11.7433 4.67187L8.89957 1.74687Z" fill="#FFE62E"/>
<path d="M18.2433 24.2531L18.2027 20.15C17.3496 20.7187 16.4152 21.125 15.3996 21.3281L18.2433 24.2531Z" fill="#FFE62E"/>
<path d="M6.58395 17.875L4.95895 21.6531L8.73708 20.0281C7.88395 19.4187 7.1527 18.6875 6.58395 17.875Z" fill="#FFCE31"/>
<path d="M20.5589 8.125L22.1839 4.34688L18.4464 5.97188C19.2589 6.58125 19.9902 7.3125 20.5589 8.125Z" fill="#FFCE31"/>
<path d="M5.20269 11.4969L1.38394 13L5.20269 14.5031C5.08082 14.0156 5.04019 13.5281 5.04019 13C5.04019 12.4719 5.08082 11.9844 5.20269 11.4969Z" fill="#FFCE31"/>
<path d="M21.9402 14.5031L25.7589 13L21.9402 11.4969C22.0214 11.9844 22.1027 12.5125 22.1027 13C22.1027 13.5281 22.0621 14.0156 21.9402 14.5031Z" fill="#FFCE31"/>
<path d="M8.69643 6.0125L4.9183 4.3875L6.5433 8.16562C7.15268 7.3125 7.88393 6.58125 8.69643 6.0125Z" fill="#FFCE31"/>
<path d="M18.4464 19.9875L22.2246 21.6125L20.5996 17.8344C19.9902 18.6875 19.2589 19.4188 18.4464 19.9875Z" fill="#FFCE31"/>
<path d="M15.0746 4.63125L13.5715 0.8125L12.0683 4.63125C12.5558 4.55 13.084 4.46875 13.5715 4.46875C14.059 4.46875 14.5871 4.50937 15.0746 4.63125Z" fill="#FFCE31"/>
<path d="M12.0683 21.3687L13.5715 25.1875L15.0746 21.3687C14.5871 21.4906 14.0996 21.5312 13.5715 21.5312C13.0433 21.5312 12.5558 21.4906 12.0683 21.3687Z" fill="#FFCE31"/>
<path d="M13.5714 20.7188C17.8344 20.7188 21.2902 17.2629 21.2902 13C21.2902 8.73705 17.8344 5.28125 13.5714 5.28125C9.30849 5.28125 5.85269 8.73705 5.85269 13C5.85269 17.2629 9.30849 20.7188 13.5714 20.7188Z" fill="#FFCE31"/>
</svg>
