<svg width="61" height="61" viewBox="0 0 61 61" fill="none" xmlns="http://www.w3.org/2000/svg">
<path d="M12.716 50.8334C12.716 53.6368 14.9959 55.9167 17.7993 55.9167H43.216C46.0195 55.9167 48.2993 53.6368 48.2993 50.8334V20.3334H53.3827V15.25H43.216V10.1667C43.216 7.36325 40.9361 5.08337 38.1327 5.08337H22.8827C20.0792 5.08337 17.7993 7.36325 17.7993 10.1667V15.25H7.63266V20.3334H12.716V50.8334ZM22.8827 10.1667H38.1327V15.25H22.8827V10.1667ZM20.341 20.3334H43.216L43.2185 50.8334H17.7993V20.3334H20.341Z" fill="#7C7C7C"/>
<path d="M22.8827 25.4166H27.966V45.75H22.8827V25.4166ZM33.0493 25.4166H38.1327V45.75H33.0493V25.4166Z" fill="#7C7C7C"/>
</svg>
